<svg width="334" height="405" viewBox="0 0 334 405" fill="none" xmlns="http://www.w3.org/2000/svg">
<path d="M167 7.5C167 7.5 326.5 71.9348 326.5 173.674C326.5 299.152 269.789 360.196 167 397.5C64.2111 360.196 7.5 299.152 7.5 173.674C7.5 71.9348 167 7.5 167 7.5Z" stroke="#003050" stroke-width="15" stroke-linejoin="round"/>
<path d="M167.725 267.37C204.3 267.37 233.95 238.521 233.95 202.935C233.95 167.348 204.3 138.5 167.725 138.5C131.15 138.5 101.5 167.348 101.5 202.935C101.5 238.521 131.15 267.37 167.725 267.37Z" stroke="#003050" stroke-width="10"/>
<path d="M167 221.152C176.788 221.152 184.722 213.56 184.722 204.196C184.722 194.831 176.788 187.239 167 187.239C157.212 187.239 149.278 194.831 149.278 204.196C149.278 213.56 157.212 221.152 167 221.152Z" fill="#1A2E8A"/>
<path d="M70.9269 204.196H100.775" stroke="#003050" stroke-width="10" stroke-linecap="round"/>
<path d="M233.225 202.5H263.073" stroke="#003050" stroke-width="10" stroke-linecap="round"/>
<path d="M166.067 112.63V139.761" stroke="#1A2E8A" stroke-width="10" stroke-linecap="round"/>
<path d="M166.067 268.63V295.761" stroke="#003050" stroke-width="10" stroke-linecap="round"/>
</svg>
